<svg width="580" height="400" xmlns="http://www.w3.org/2000/svg">
 <!-- Created with Method Draw - http://github.com/duopixel/Method-Draw/ -->

 <g>
  <title>background</title>
  <rect fill="none" id="canvas_background" height="402" width="582" y="-1" x="-1"/>
 </g>
 <g>
  <title>Layer 1</title>
  <text fill="#0ea8ef" stroke-width="0" stroke-opacity="null" x="34.262622" y="218.195094" id="svg_1" font-size="92" font-family="Euphoria, sans-serif" text-anchor="start" xml:space="preserve" stroke="#000" font-weight="bold">Eco</text>
  <text fill="#0ea8ef" stroke="#000" stroke-width="0" stroke-opacity="null" fill-opacity="null" x="407.892155" y="215.991729" id="svg_2" font-size="92" font-family="Helvetica, Arial, sans-serif" text-anchor="start" xml:space="preserve" font-weight="bold">ap</text>
  <path fill="#0ea8ef" stroke-width="0" stroke-opacity="null" d="m214,223.134809l69.500009,-138.000011l69.500009,138.000011l-139.000018,0z" id="svg_4" stroke="#000"/>
  <path fill="#00ff00" stroke="#000" stroke-width="0" stroke-opacity="null" d="m279.997518,223.096766l50.500005,-112.000007l50.500005,112.000007l-101.00001,0z" id="svg_5"/>
  <path fill="none" stroke="#0ea8ef" stroke-width="12" stroke-opacity="null" id="svg_19" d="m224.5,169.925551c2,-1 2.069489,-2.960739 6,-10c6.108597,-10.940063 16.410141,-31.267784 23,-45c7.35498,-15.326591 8.50718,-21.08744 10.713235,-26c2.36029,-7.254898 6.246334,-17.954649 9.286765,-26c3.040431,-8.045351 5.321442,-14.190994 7,-11c2.50705,4.765991 6.939178,14.024757 9,19c2.914429,7.036057 4.337494,10.310005 6,13c2.230499,3.609009 5.473297,10.293663 9,16c2.628662,4.253258 1.948266,3.256584 5,8c6.229767,8.973251 7.458801,9.306564 8,8c0.541199,-1.306564 3.190277,-7.881523 5,-11l4,-8c1,-3 2.458801,-4.693436 3,-6c0.38269,-0.923882 1,-1 2,1c2,4 3.771942,7.119553 7,13c2.805908,5.111443 8.07193,12.95327 10,16c3.118103,4.927216 5.695923,10.159401 10,18c2.805908,5.11145 7.513,10.593994 9,13c1.662506,2.689987 2,2.58156 3,5l0.64539,2"/>
  <path fill="0ea8ef" stroke="#0ea8ef" stroke-width="12" stroke-opacity="null" fill-opacity="null" opacity="0.5" d="m267.843242,82.352587" id="svg_20"/>
  <line fill="0ea8ef" stroke-width="12" stroke-opacity="null" x1="27.990164" y1="280.935987" x2="104.950962" y2="281.426183" id="svg_21" stroke-linejoin="null" stroke-linecap="null" stroke="#0ea8ef"/>
  <text fill="#ff7f00" stroke-width="0" stroke-opacity="null" x="415.709358" y="333.955663" id="svg_22" font-size="92" font-family="Helvetica, Arial, sans-serif" text-anchor="start" xml:space="preserve" transform="matrix(0.40776931673746186,0,0,0.4490094528080971,-56.37304477231376,143.6516224875001) " stroke="#000">野生动植物智慧保护</text>
  <line fill="none" stroke-width="12" stroke-opacity="null" x1="459.362784" y1="281.91638" x2="536.323582" y2="282.406576" id="svg_23" stroke-linejoin="null" stroke-linecap="null" stroke="#0ea8ef"/>
  <path stroke="#000" stroke-width="0" fill="#0ea8ef" transform="rotate(46 520.1609497070312,164.21862792968753) " id="svg_3" d="m520.160938,161.937194c-14.083697,0 -26.169532,8.814666 -31.620491,21.49223l10.334622,10.86278c1.849873,-10.603525 10.655267,-18.666352 21.285868,-18.666352c10.630602,0 19.435996,8.062827 21.285868,18.666352l10.334622,-10.86278c-5.450958,-12.677564 -17.536793,-21.49223 -31.620491,-21.49223zm0,-45.602934c-25.996878,0 -48.959964,13.403478 -63.142321,33.936464l9.274028,9.747984c11.71586,-18.095991 31.472501,-29.99579 53.868293,-29.99579c22.395792,0 42.152432,11.899799 53.868293,30.021716l9.274028,-9.747984c-14.182357,-20.558912 -37.145444,-33.96239 -63.142321,-33.96239zm0,22.81443c-20.00329,0 -37.564748,10.992407 -47.554061,27.506943l9.471348,9.955388c7.350161,-14.181242 21.631178,-23.799598 38.082713,-23.799598s30.732552,9.618356 38.107378,23.773673l9.471348,-9.955388c-10.013978,-16.488611 -27.575436,-27.481018 -47.578726,-27.481018zm0,45.577009c-7.177506,0 -13.023104,6.118415 -13.023104,13.688658c0,7.544317 5.820933,13.688658 13.023104,13.688658c7.177506,0 13.023104,-6.118415 13.023104,-13.688658c0,-7.544317 -5.845598,-13.688658 -13.023104,-13.688658z"/>
 </g>
</svg>